<svg width="28" height="28" viewBox="0 0 28 28" fill="none" xmlns="http://www.w3.org/2000/svg">
<g clip-path="url(#clip0_38_84)">
<path d="M13.9811 27.9999C12.0162 27.9999 10.1898 27.663 8.50202 26.9892C6.81422 26.2905 5.32794 25.3172 4.04319 24.0695C2.78363 22.7967 1.78858 21.3119 1.05804 19.6149C0.352684 17.893 0 16.0089 0 13.9625C0 11.9162 0.352684 10.0445 1.05804 8.34757C1.78858 6.65061 2.78363 5.17824 4.04319 3.93047C5.32794 2.6827 6.81422 1.72192 8.50202 1.04813C10.1898 0.349375 12.0162 0 13.9811 0C15.946 0 17.7724 0.349375 19.4602 1.04813C21.1732 1.72192 22.6595 2.6827 23.919 3.93047C25.2038 5.17824 26.1988 6.65061 26.9042 8.34757C27.6347 10.0445 28 11.9162 28 13.9625C28 16.0089 27.6347 17.893 26.9042 19.6149C26.1988 21.3119 25.2038 22.7967 23.919 24.0695C22.6595 25.3172 21.1732 26.2905 19.4602 26.9892C17.7724 27.663 15.946 27.9999 13.9811 27.9999Z" fill="#FE2743"/>
<path fill-rule="evenodd" clip-rule="evenodd" d="M13.25 24V4.8H14.75V24H13.25Z" fill="white"/>
<path d="M13.25 12.0075C13.2453 14.592 10.8145 16.85 7.60001 16.85V18.35C10.3463 18.35 12.8114 16.9508 14 14.8435C15.1886 16.9508 17.6537 18.35 20.4 18.35V16.85C17.1855 16.85 14.7547 14.592 14.75 12.0075C14.75 12.005 14.75 12.0025 14.75 12H13.25C13.25 12.0025 13.25 12.005 13.25 12.0075Z" fill="white"/>
<path d="M13.25 8.00745C13.2453 10.592 10.8145 12.85 7.60001 12.85V14.35C10.3463 14.35 12.8114 12.9508 14 10.8435C15.1886 12.9508 17.6537 14.35 20.4 14.35V12.85C17.1855 12.85 14.7547 10.592 14.75 8.00745C14.75 8.00497 14.75 8.00248 14.75 8H13.25C13.25 8.00248 13.25 8.00497 13.25 8.00745Z" fill="white"/>
<path d="M13.25 4.00745C13.2453 6.59198 10.8145 8.85 7.60001 8.85V10.35C10.3463 10.35 12.8114 8.95082 14 6.84348C15.1886 8.95082 17.6537 10.35 20.4 10.35V8.85C17.1855 8.85 14.7547 6.59198 14.75 4.00745C14.75 4.00497 14.75 4.00248 14.75 4H13.25C13.25 4.00248 13.25 4.00497 13.25 4.00745Z" fill="white"/>
</g>
<defs>
<clipPath id="clip0_38_84">
<path d="M0 14C0 6.268 6.26803 0 14 0C21.732 0 28 6.268 28 14C28 21.7319 21.732 27.9999 14 27.9999C6.26803 27.9999 0 21.7319 0 14Z" fill="white"/>
</clipPath>
</defs>
</svg>
