<?xml version="1.0" encoding="UTF-8"?>
<svg width="143px" height="45px" viewBox="0 0 143 45" version="1.1" xmlns="http://www.w3.org/2000/svg" xmlns:xlink="http://www.w3.org/1999/xlink">
    <title>Logosimbolo-horizontal-RGB-2</title>
    <g id="Symbols" stroke="none" stroke-width="1" fill="none" fill-rule="evenodd">
        <g id="Footer" transform="translate(-70.000000, -100.000000)" fill-rule="nonzero">
            <g id="Logosimbolo-horizontal-RGB-2" transform="translate(70.000000, 100.000000)">
                <path d="M0,11.0833035 L0,11.0833035 L0,35.6514021 C0,40.7558217 4.11320932,44.8935148 9.18664758,44.8935148 L33.605,44.8935148 L0,11.0833035 Z" id="Path" fill="#FFFFFF"></path>
                <polygon id="Path" fill="#006B4E" points="16.802185 11.0833099 0 11.0833099 8.40109251 19.5357042"></polygon>
                <path d="M24.1250386,3.7159669 L8.40133819,19.5356852 L16.8024307,27.9880796 L44.6206113,-1.90140845e-05 L33.0407611,-1.90140845e-05 C29.6966564,-1.90140845e-05 26.4895695,1.33679174 24.125026,3.7159669" id="Path" fill="#00D990"></path>
                <path d="M55.5508572,11.0776944 C55.8739868,11.0776944 56.035243,11.2405817 56.035243,11.5974127 L56.035243,24.3324127 L60.3296526,18.4196662 C60.4850939,18.2010694 60.7414842,18.0784385 61.0081152,18.0951592 L66.1743335,18.0951592 C66.7230881,18.0951592 66.8194084,18.2897366 66.464781,18.7124831 L61.5567942,25.3718493 L67.6598074,35.6375535 C67.9823449,36.2225535 67.7889484,36.5147366 67.1105174,36.5147366 L62.1704028,36.5147366 C61.8848752,36.5431866 61.6084799,36.4041524 61.4597747,36.1572718 L56.0352241,26.6388211 L56.0352241,35.9943845 C56.0352241,36.3524831 55.8739553,36.5147366 55.5508383,36.5147366 L50.9010705,36.5147366 C50.578533,36.5147366 50.4166848,36.3524831 50.4166848,35.9943845 L50.4166848,11.5974127 C50.4166848,11.2405817 50.5785834,11.0776944 50.9010705,11.0776944 L55.5508572,11.0776944 Z" id="Path" fill="#FFFFFF"></path>
                <path d="M84.3449656,19.7842056 C85.539992,21.0188535 86.1529391,23.3899099 86.1529391,26.9309662 C86.1529391,30.6995577 85.6363311,33.2664592 84.5711197,34.6304028 C83.5052343,35.994993 81.535572,36.6773873 78.662133,36.6775859 C77.389502,36.6847211 76.1174859,36.6195469 74.8521594,36.4823746 L74.8521594,44.4061775 C74.8710236,44.5404855 74.825998,44.6758985 74.7306045,44.7717499 C74.6352111,44.8676012 74.5005616,44.9127257 74.3670933,44.8935718 L69.6852607,44.8935718 C69.5518723,44.9126006 69.417355,44.8674091 69.3220918,44.7715641 C69.2268285,44.6757191 69.1819113,44.5403804 69.2008246,44.4061775 L69.2008246,19.5566704 C69.1592882,19.0820218 69.5050426,18.6620961 69.9763004,18.6148394 C72.3867118,18.1912319 74.8270575,17.9631741 77.2737793,17.9328676 C80.7932844,17.9328676 83.1503696,18.5499803 84.3450348,19.7842056 M74.8522287,22.8055437 L74.8522287,31.6097303 C75.6111192,31.7224759 76.3774855,31.7765075 77.144588,31.77135 C78.5651386,31.77135 79.4691632,31.5114908 79.8887265,30.9594486 C80.3089071,30.4074063 80.5023036,29.1727585 80.5023036,27.2884627 C80.5023036,25.5017725 80.3409656,24.3324063 80.0178674,23.7157162 C79.69533,23.0977585 78.8876887,22.8055437 77.5963168,22.8055437 L74.8522287,22.8055437 Z" id="Shape" fill="#FFFFFF"></path>
                <path d="M104.256632,23.7795148 L104.256632,34.9553599 C104.302905,35.4511007 103.967208,35.901064 103.481156,35.9947965 C101.03458,36.4718942 98.5465636,36.7005769 96.0545615,36.6774021 C94.860165,36.6774021 93.9234646,36.6444444 93.2134602,36.5797965 C92.4821419,36.5351693 91.7572793,36.4153909 91.0501915,36.2223317 C88.9511782,35.5726838 88.2084602,34.1757824 88.0144337,30.8616275 C88.0465048,28.6857824 88.5958831,27.2235993 89.6938333,26.5086697 C90.7918465,25.7614162 92.5676923,25.4045852 95.0534985,25.4045852 L98.6052342,25.3716275 L98.6052342,24.7219796 C98.6052342,23.4556415 97.7988906,22.8053599 96.1515558,22.8053599 L89.8236483,22.8053599 C89.5326087,22.8053599 89.4034677,22.6424725 89.4034677,22.3185993 L89.4034677,19.0044444 C89.3904948,18.8794278 89.4275125,18.7543572 89.5063478,18.6568463 C89.5851831,18.5593355 89.6993523,18.4974042 89.8236483,18.4847261 C91.9099642,18.0931924 94.0293943,17.9082948 96.1515558,17.9326838 C103.223441,17.9656415 104.256569,20.3043739 104.256569,23.7795148 M98.605272,28.7827542 L95.6022153,28.7827542 C94.0525237,28.7827542 93.5687175,29.2707824 93.5687175,30.4718387 C93.5687175,31.7717683 94.0853255,32.1292331 95.8611272,32.1292331 C96.7825477,32.144219 97.7028066,32.0570741 98.605272,31.8693739 L98.605272,28.7827542 Z" id="Shape" fill="#FFFFFF"></path>
                <path d="M120.595963,18.4525035 C120.923226,18.508797 121.158104,18.8007427 121.144655,19.134507 L121.144655,22.2857746 C121.144655,22.6426056 120.950628,22.805493 120.563206,22.805493 L115.106458,22.805493 C113.912061,22.805493 113.104458,23.0976761 112.717035,23.6826761 C112.36237,24.2676761 112.168343,25.4693662 112.168343,27.2883803 C112.168343,29.1080282 112.36237,30.3097183 112.717035,30.9276761 C113.104458,31.5114085 113.912061,31.8042254 115.106458,31.8042254 L120.563206,31.8042254 C120.950628,31.8042254 121.144655,31.9664789 121.144655,32.3239437 L121.144655,35.4752113 C121.158116,35.8091017 120.923302,36.1012247 120.595963,36.1578169 C118.79333,36.5510404 116.950356,36.725511 115.106458,36.6774972 C111.393548,36.6774972 109.455753,36.2547507 108.164406,34.7925676 C106.872965,33.2663704 106.550459,31.2198211 106.550459,27.2883423 C106.550459,24.1377085 106.808684,22.3186944 107.485944,20.7912296 C108.648842,18.4848211 110.715098,18.0297507 115.106477,17.9327789 C116.950376,17.8847635 118.79335,18.0592363 120.595982,18.4524655" id="Path" fill="#FFFFFF"></path>
                <path d="M129.591677,13.0921415 C129.591677,14.9434796 128.397281,16.0805218 126.363153,16.0805218 C124.26414,16.0805218 123.069744,15.0087613 123.069744,13.0921415 C123.069744,11.2408035 124.26414,10.1360852 126.363153,10.1360852 C128.397281,10.1360852 129.591677,11.2408035 129.591677,13.0921415 M128.655563,18.095381 C128.978693,18.095381 129.139955,18.2576345 129.139955,18.6144655 L129.139955,35.9946063 C129.139955,36.3527049 128.978686,36.5149585 128.655563,36.5149585 L124.005795,36.5149585 C123.682665,36.5149585 123.522027,36.3527049 123.522027,35.9946063 L123.522027,18.6144655 C123.522027,18.2576345 123.682665,18.095381 124.005795,18.095381 L128.655563,18.095381 Z" id="Shape" fill="#FFFFFF"></path>
                <path d="M138.755791,13.0271007 C139.046163,12.9294951 139.240177,13.1570303 139.240177,13.546819 L139.240177,18.2255514 L142.017023,18.2255514 C142.371758,18.2255514 142.565771,18.3878049 142.565771,18.712312 L142.565771,21.8635796 C142.565771,22.2204106 142.371745,22.3832979 142.017023,22.3832979 L139.240177,22.3832979 L139.240177,30.1797063 C139.240177,31.5119599 139.691856,31.804143 141.080279,31.804143 L142.307433,31.804143 C142.662728,31.804143 142.856124,31.9663965 142.856124,32.2915373 L142.856124,35.6703401 C142.878198,36.0006311 142.634978,36.2886024 142.307433,36.319988 C141.253865,36.5307477 140.184291,36.6503396 139.110438,36.6774528 C138.37736,36.6873657 137.644324,36.6547765 136.914972,36.5798472 C136.347304,36.4903795 135.793721,36.3265223 135.268336,36.0924528 C134.105394,35.5404106 133.621632,34.3057627 133.621632,32.2262556 L133.621632,22.3832979 L131.683856,22.3832979 C131.32919,22.3832979 131.135164,22.2204106 131.135164,21.8635796 L131.135164,18.712312 C131.135164,18.3878049 131.32919,18.2255514 131.683856,18.2255514 L133.621632,18.2255514 L133.621632,14.7814669 C133.621632,14.5216077 133.7829,14.3587204 134.07326,14.2617866 L138.755791,13.0271007 Z" id="Path" fill="#FFFFFF"></path>
            </g>
        </g>
    </g>
</svg>